<svg width="1920" height="1280" viewBox="0 0 1920 1280" fill="none" xmlns="http://www.w3.org/2000/svg">
<g clip-path="url(#clip0)">
<path d="M1920 0H0V1280H1920V0Z" fill="#f5f8fd"/>
<path d="M1037 1145.41C1190.28 1161.31 1370.17 1177.09 1489.01 1106.53C1607.98 1035.89 1590.51 904.864 1623.38 797.246C1649.3 712.372 1666.43 630.145 1660.99 543.384C1655.01 447.815 1676.64 340.086 1590.15 266.741C1503.49 193.256 1348.87 192.992 1218.5 168.153C1091.4 143.935 967.614 112.3 836.917 123.222C689.867 135.512 539.467 162.706 430.638 233.998C316.224 308.949 235.173 413.88 224.851 524.174C214.81 631.473 295.305 730.404 375.655 821.556C448.096 903.736 550.202 965.732 662.601 1020.77C778.416 1077.48 897.796 1130.96 1037 1145.41Z" fill="#619CC8"/>
<path d="M1920 1835.95C2020.09 1814.55 2099.84 1748.12 2179.7 1684.1C2251.96 1626.17 2314.3 1561.27 2361.82 1481.77C2414.22 1394.11 2488.09 1301.36 2468.4 1201.15C2448.73 1101.08 2321.7 1066.08 2263.65 982.226C2195.07 883.17 2215.18 702.335 2099.58 668.417C1983.96 634.496 1904.74 801.514 1791.93 843.825C1691.47 881.501 1563.08 830.308 1481.65 900.171C1399.08 971.02 1378.87 1092.9 1374.91 1201.63C1371.18 1303.87 1427.97 1392.89 1460.17 1490C1496.96 1600.92 1484.2 1742.55 1577.58 1812.81C1670.89 1883.01 1805.82 1860.36 1920 1835.95Z" fill="white"/>
<path d="M-110.732 381.047C-10.6406 359.652 69.1094 293.217 148.969 229.199C221.232 171.27 283.567 106.364 331.087 26.8689C383.487 -60.7901 457.357 -153.54 437.664 -253.75C417.999 -353.818 290.966 -388.828 232.917 -472.677C164.339 -571.733 184.45 -752.568 68.8453 -786.486C-46.7697 -820.407 -125.99 -653.389 -238.804 -611.078C-339.26 -573.402 -467.651 -624.595 -549.077 -554.732C-631.652 -483.883 -651.866 -362.007 -655.826 -253.276C-659.55 -151.035 -602.764 -62.0151 -570.561 35.0939C-533.775 146.022 -546.536 287.645 -453.147 357.906C-359.841 428.105 -224.916 405.455 -110.732 381.047Z" fill="white"/>
</g>
<defs>
<clipPath id="clip0">
<rect width="1920" height="1280" fill="white"/>
</clipPath>
</defs>
</svg>
